<svg xmlns="http://www.w3.org/2000/svg" width="512" height="512" viewBox="0 0 612.014 612.014"><path d="M306.21 153.117h-76.553v76.552h-76.552v76.553h76.552v76.552h76.553v-76.552h76.552v-76.553H306.21v-76.552zm292.011 378.476l-110.58-110.542c30.314-43.443 48.228-96.149 48.228-153.105C535.869 119.97 415.911.012 267.935.012S0 119.97 0 267.946 119.958 535.88 267.934 535.88c56.956 0 109.662-17.913 153.105-48.228l110.542 110.542c18.411 18.41 48.229 18.41 66.64 0 18.411-18.411 18.372-48.19 0-66.601zm-330.287-72.266c-105.681 0-191.381-85.7-191.381-191.381S162.254 76.565 267.934 76.565c105.681 0 191.381 85.701 191.381 191.381 0 105.681-85.7 191.381-191.381 191.381z" fill="#FFF"/></svg>